<svg width="16" height="18" viewBox="0 0 16 18" fill="none" xmlns="http://www.w3.org/2000/svg">
<path d="M1.33334 8.09226C1.33334 7.1387 1.78666 6.24194 2.5545 5.67654L8.00001 1.66666L13.4455 5.67654C14.2134 6.24194 14.6667 7.1387 14.6667 8.09225V13.8333C14.6667 15.214 13.5474 16.3333 12.1667 16.3333H11C10.4477 16.3333 10 15.8856 10 15.3333V11.8333C10 11.5572 9.77615 11.3333 9.50001 11.3333H6.50001C6.22387 11.3333 6.00001 11.5572 6.00001 11.8333V15.3333C6.00001 15.8856 5.5523 16.3333 5.00001 16.3333H3.83334C2.45263 16.3333 1.33334 15.214 1.33334 13.8333V8.09226Z" stroke="#8C8C8C" stroke-width="2" stroke-linecap="round" stroke-linejoin="round"/>
</svg>
